Patient4_TMGait_0pt5_02_right_20_EMG.mot
version=1
nRows=16
nColumns=33
inDegrees=no
endheader
time	1LAddLong	2LGlutMax	3LGlutMed	4LIliopsoas	5LSemiMemb	6LBicFemLong	7LRecFem	8LVastMed	9LVastLat	10LGasMed	11LTibAnt	12lTibPost	13LPeroneusLong	14LSol	15LExtDigLong	16LFlexDigLong	17RAddLong	18RGlutMax	19RGlutMed	20RIliopsoas	21RSemiMemb	22RBicFemLong	23RRecFem	24RVastMed	25RVastLat	26RGasMed	27RTibAnt	28RTibPost	29RPeroneusLong	30RSol	31RExtDigLong	32RFlexDigLong
27.33	-0.003967	0.016479	0.075531	-0.010376	-0.007629	0.19287	0.081482	0.017853	0.056763	-0.16647	-0.06485	-0.007019	0.17288	0.017548	-0.15701	0.007782	0.005188	-0.018616	-0.060425	-0.41092	-0.040588	-0.068359	0.15335	-0.10284	0.005188	0.014496	-0.23499	-0.004425	0.15472	-0.072327	0.001068	0.013428
27.331	-0.000153	-0.025635	0.037231	0.003815	0.001678	0.31815	0.040588	0.01709	0.059967	0.080566	-0.052948	0.008087	-0.29739	-0.072174	-0.22553	0.001678	0.001831	-0.088348	-0.080566	-0.20096	-0.067596	-0.047913	0.028229	-0.095367	0.003662	0.002136	-0.63904	-0.005188	-0.041656	-0.1004	-0.003967	0.014954
27.332	0.000916	-0.025024	-0.14664	0.019531	0.00061	0.21362	0.004883	0.013428	0.050354	0.24414	0.005188	0	-0.24124	0.093536	-0.059662	0.007172	0.011902	-0.052948	-0.16129	0.12451	-0.05188	-0.067596	-0.13046	-0.10376	-0.014954	-0.000153	-0.84885	-0.00412	0.2153	-0.10407	0.005646	0.007782
27.333	0.004578	-0.015259	-0.177	0.014648	0.028992	-0.39917	-0.022888	0.002747	0.060425	-0.17578	0.011139	-0.003052	0.0737	0.1207	-0.045929	0.00061	0.029907	-0.052032	-0.097198	0.40039	-0.063782	-0.092163	-0.15732	-0.13504	0.009613	-0.002747	-0.80276	-0.006714	0.31509	-0.028076	0	0.018311
27.334	0.011292	-0.000916	-0.046539	0.017242	0.031128	-0.21774	-0.052338	-0.005646	0.11505	-0.22598	-0.033112	-0.011444	0.66025	0.033112	0.37781	0.002441	0.062103	-0.06012	-0.072784	0.39673	-0.19196	-0.085449	-0.079041	-0.041809	0.043945	0.001068	-0.55588	-0.003204	0.031281	-0.050659	0.001678	0.000153
27.335	0.008545	0.011444	-0.002899	0.011444	0.026245	-0.23178	-0.026703	-0.007782	0.08728	-0.063477	-0.053253	-0.003204	0.082245	0.059509	0.19806	0.005188	0.086975	0.033875	0.18967	0.12543	-0.40985	-0.0737	-0.049438	-0.020142	0.023956	0.00061	0.021667	-0.003052	-0.4808	-0.11154	-0.003967	0.007477
27.336	0.002289	-0.013885	-0.033722	0.006561	0.031891	-0.57388	-0.011444	-0.002899	0.031738	0.044708	-0.021362	-0.007324	-0.85907	0.20203	0.33539	-0.003967	0.12451	-0.035858	0.13687	0.006256	-0.43274	-0.079803	0.013733	-0.11429	0.00351	-0.006104	0.40573	-0.005798	-0.2475	-0.068359	0.001068	-0.000305
27.337	0.005035	-0.014648	-0.058746	0.014954	0.0354	-0.8638	0.017395	-0.009766	0.009003	0.11353	-0.021362	0.000305	-0.53024	0.064392	0.06958	-0.006866	0.11871	-0.094757	0.23346	-0.037079	-0.060425	-0.09613	-0.033112	-0.099945	0.023956	-0.015564	-0.14465	-0.003815	0.11108	0.067139	0.001068	0.017242
27.338	0.001068	-0.027161	-0.084076	0.00061	0.027008	-0.59265	0.010681	-0.012665	0.032349	0.036469	0.038452	-0.000305	0.10834	0.032654	-0.19028	0.013428	0.10483	-0.045776	0.1796	0.058594	0.35568	-0.077972	-0.005493	-0.13626	0.037994	-0.024872	-0.42755	-0.005035	0.036469	0.18204	-0.003357	-0.001678
27.339	-0.001068	-0.044403	-0.06546	-0.000916	0.020447	-0.24811	0.004425	-0.007782	0.053253	-0.042877	0.12833	0.001984	1.0304	0.10681	0.023499	0.033722	0.068359	-0.044861	0.047913	0.13702	0.12772	-0.026398	-0.027924	-0.054932	0.034485	-0.019989	-0.34653	-0.007935	0.055084	0.09613	0.001984	0.000153
27.34	-0.000458	-0.080414	-0.047302	-0.009613	0.012665	-0.094604	0.045929	-0.007629	0.021057	-0.043182	0.20477	0.010376	0.14435	0.11871	-0.039063	0.021515	-0.009003	-0.007019	0.079346	0.057068	-0.11398	-0.028687	-0.046997	-0.011444	0.05127	-0.018005	-0.47699	-0.008698	-0.058899	-0.003967	-0.005341	0.002441
27.341	0.001221	-0.050201	-0.041351	0.009308	0.017548	-0.058136	0.040588	0.00351	0.00412	-0.059204	0.20645	0.002899	-0.44235	0.051575	-0.16144	0.007782	-0.080719	0.001526	0.058441	0.021515	0.009003	-0.067749	-0.019989	0.062408	0.037231	-0.016327	0.15106	-0.004272	-0.11368	-0.057373	0.003357	-0.000153
27.342	-0.003052	-0.05722	-0.02655	-0.013428	0.019379	-0.036469	0.03006	0.010223	-0.006104	0.021057	0.079346	0.010529	-0.12634	0.097656	-0.19699	0.002899	-0.086823	-0.043182	-0.13687	-0.006866	0.17868	-0.13458	0.023193	-0.00473	0.02533	0.002289	0.7753	-0.002594	-0.30411	-0.041351	0.002899	-0.006714
27.343	0	-0.048218	-0.001526	-0.014343	0.011292	-0.014648	0.05661	0.00351	-0.010223	0.1358	-0.11459	0.011597	0.030212	0.16312	0.095673	0.007172	-0.061798	-0.085449	-0.17014	-0.019073	-0.074158	-0.13565	0.079803	-0.050964	0.006256	0.003204	0.42557	-0.003662	-0.24323	-0.050964	0.000763	0.004425
27.344	-0.000153	-0.018005	0.033112	-0.016174	0.002441	0.08255	0.029297	0.009766	0.004272	0.13001	-0.067444	0.002441	-0.25528	0.18555	0.022278	0.014954	-0.081482	-0.053864	-0.001526	-0.045624	-0.076752	-0.14389	0.060272	-0.002289	0.0177	-0.011292	-0.24033	-0.004578	0.046082	0.004883	0.00412	0.00412
27.345	0.005493	-0.020447	0.0383	-0.014648	0.009003	0.10437	0.030975	0.005646	-0.038147	0.07782	0.1001	-0.007019	-0.29984	0.091553	0.43228	0.009308	-0.08194	-0.041656	0.072479	-0.044708	-0.040588	0.044098	0.11231	-0.052185	0.011597	-0.015106	-0.32867	-0.004272	0.085297	0.03891	0.002441	0.005035
